<svg width="384" height="384" viewBox="0 0 384 384" fill="none" xmlns="http://www.w3.org/2000/svg">
<rect width="384" height="384" rx="50" fill="url(#paint0_linear_2549_198)"/>
<path d="M101.75 141.064C101.75 129.155 111.405 119.5 123.314 119.5H124.801V141.064H101.75Z" fill="white"/>
<path fill-rule="evenodd" clip-rule="evenodd" d="M120.784 119.5H225.475C240.007 119.5 251.788 131.281 251.788 145.813C251.788 155.116 246.96 163.291 239.673 167.97C263.662 170.863 282.252 191.291 282.252 216.06C282.252 242.813 260.565 264.501 233.812 264.501H120.783V167.619H120.784V119.5ZM161.151 201.165C159.399 200.487 157.693 199.714 156.045 198.846C146.922 194.043 140.182 186.677 137.054 178.091C133.925 169.505 134.617 160.271 139.002 152.073C143.387 143.875 151.174 137.259 160.942 133.432C170.711 129.605 181.81 128.821 192.217 131.223C200.913 133.231 208.64 137.352 214.44 143.008C216.216 144.74 215.648 147.618 213.477 148.819L193.709 159.758C190.095 161.758 191.515 167.258 195.646 167.258H221.188C223.397 167.258 225.214 169.056 224.931 171.247C224.04 178.148 220.851 184.724 215.699 190.224H217.665C231.042 190.224 241.885 201.067 241.885 214.444C241.885 227.82 231.042 238.664 217.665 238.664H161.151V201.165ZM197.334 146.27C196.01 144.41 194.259 142.784 192.179 141.485C190.099 140.187 187.731 139.241 185.211 138.703C182.691 138.164 180.068 138.043 177.492 138.347C174.916 138.65 172.437 139.372 170.196 140.471C167.956 141.57 165.998 143.025 164.435 144.752C162.871 146.48 161.733 148.446 161.084 150.539C160.436 152.632 160.29 154.81 160.655 156.95C161.021 159.09 161.89 161.149 163.213 163.009L180.273 154.64L197.334 146.27Z" fill="white"/>
<defs>
<linearGradient id="paint0_linear_2549_198" x1="192" y1="-1.37835e-07" x2="305.5" y2="435.5" gradientUnits="userSpaceOnUse">
<stop stop-color="#2C25FF"/>
<stop offset="1" stop-color="#7B68EE"/>
</linearGradient>
</defs>
</svg>
